#!OML:ASF H:\Punching\Project 1\Capture day 1\Session 1\female.ASF
:FULLY-SPECIFIED
:DEGREES
2525
root 0.772011 15.3953 4.78206 -12.7967 -1.54143 -9.87566
lowerback 11.7246 -2.31377 -0.528566
upperback 4.25528 -2.9475 7.38389
thorax -1.66682 -1.55279 8.50396
lowerneck -6.2025 -0.640674 10.7873
upperneck 44.6169 -2.63615 -3.4391
head 17.3039 0.228287 -3.97168
rclavicle -3.80797e-014 7.31528e-014
rhumerus -4.58007 -1.37529 -52.5513
rradius 128.997
rwrist -17.9498
rhand -31.6334 6.86244
rfingers 7.12502
rthumb -4.89474 -23.061
lclavicle -3.80797e-014 7.31528e-014
lhumerus 7.50711 -25.4908 70.2954
lradius 127.727
lwrist -0.274754
lhand -25.581 0.0093753
lfingers 7.12502
lthumb 0.950451 29.987
rfemur -109.079 -13.4734 27.4503
rtibia 124.639
rfoot 0.311034 0.144592
rtoes -15.0538
lfemur -4.03134 -4.42667 -19.5755
ltibia 39.3759
lfoot -14.7362 5.82559
ltoes 9.43838
2526
root 0.775118 15.4022 4.72811 -11.3663 -1.75707 -9.59217
lowerback 11.0672 -2.24883 -0.666005
upperback 3.86134 -2.87893 7.25981
thorax -1.73319 -1.50686 8.41171
lowerneck -6.31623 -0.521747 10.8531
upperneck 44.5239 -2.49774 -3.39711
head 17.2959 0.295687 -3.94372
rclavicle 1.33683e-014 4.05521e-014
rhumerus -4.58133 -1.06334 -52.5943
rradius 129.013
rwrist -17.4561
rhand -31.5903 6.90976
rfingers 7.12502
rthumb -4.85312 -23.0147
lclavicle 1.33683e-014 4.05521e-014
lhumerus 7.30408 -25.1789 69.8371
lradius 127.826
lwrist 0.0300186
lhand -25.4238 -0.334636
lfingers 7.12502
lthumb 1.10221 29.6423
rfemur -107.596 -12.7119 27.6308
rtibia 125.836
rfoot 0.0237079 0.0888979
rtoes -14.7152
lfemur -5.79682 -4.69515 -19.8122
ltibia 39.4419
lfoot -14.7564 6.35636
ltoes 9.75158
2527
root 0.778443 15.4116 4.67432 -9.9539 -2.04812 -9.30607
lowerback 10.4275 -2.16094 -0.790252
upperback 3.45521 -2.77564 7.12404
thorax -1.82623 -1.44227 8.29842
lowerneck -6.38379 -0.418809 10.9295
upperneck 44.4017 -2.37304 -3.36739
head 17.2564 0.3555 -3.92245
rclavicle -1.69712e-014 1.59028e-015
rhumerus -4.6242 -0.757349 -52.6316
rradius 129.032
rwrist -17.0366
rhand -31.5201 6.90298
rfingers 7.12502
rthumb -4.78532 -23.023
lclavicle -1.69712e-014 1.59028e-015
lhumerus 7.07125 -24.884 69.3843
lradius 127.933
lwrist 0.353383
lhand -25.2901 -0.736509
lfingers 7.12502
lthumb 1.23141 29.2397
rfemur -105.975 -11.8055 27.7075
rtibia 126.772
rfoot -0.211628 0.00797206
rtoes -14.4078
lfemur -7.51049 -4.91286 -20.0157
ltibia 39.4488
lfoot -14.731 6.87882
ltoes 10.1014
2528
root 0.782051 15.4222 4.6215 -8.57787 -2.3996 -9.02457
lowerback 9.80763 -2.05475 -0.889273
upperback 3.04713 -2.64361 6.97169
thorax -1.93611 -1.36261 8.15258
lowerneck -6.4341 -0.329033 11.017
upperneck 44.2775 -2.26455 -3.34751
head 17.2094 0.408926 -3.90948
rclavicle -4.7435e-014 8.18993e-014
rhumerus -4.70292 -0.466885 -52.6731
rradius 129.066
rwrist -16.7389
rhand -31.4105 6.8266
rfingers 7.12502
rthumb -4.6795 -23.1017
lclavicle -4.7435e-014 8.18993e-014
lhumerus 6.8117 -24.691 68.9157
lradius 128.095
lwrist 0.519118
lhand -25.2568 -0.72632
lfingers 7.12502
lthumb 1.26351 29.2497
rfemur -104.221 -10.783 27.6885
rtibia 127.46
rfoot -0.406119 -0.0829802
rtoes -14.1305
lfemur -9.1522 -5.07637 -20.1908
ltibia 39.4035
lfoot -14.6777 7.39495
ltoes 10.4625
2529
root 0.785913 15.4333 4.56973 -7.25199 -2.80086 -8.75613
lowerback 9.22161 -1.93278 -0.954976
upperback 2.63948 -2.48575 6.80026
thorax -2.06798 -1.2695 7.9682
lowerneck -6.45219 -0.256707 11.1254
upperneck 44.1391 -2.17775 -3.33897
head 17.1432 0.454275 -3.90712
rclavicle 1.49337e-014 1.03368e-014
rhumerus -4.82232 -0.188643 -52.7329
rradius 129.113
rwrist -16.5806
rhand -31.275 6.72137
rfingers 7.12502
rthumb -4.54868 -23.2098
lclavicle 1.49337e-014 1.03368e-014
lhumerus 6.53882 -24.5834 68.4256
lradius 128.302
lwrist 0.522434
lhand -25.2923 -0.358288
lfingers 7.12502
lthumb 1.22922 29.6179
rfemur -102.338 -9.66414 27.5828
rtibia 127.912
rfoot -0.559508 -0.163525
rtoes -13.8897
lfemur -10.71 -5.17642 -20.3387
ltibia 39.3157
lfoot -14.6049 7.90466
ltoes 10.8093
2530
root 0.790104 15.4443 4.51894 -5.98706 -3.23503 -8.50916
lowerback 8.68458 -1.80892 -0.992589
upperback 2.25399 -2.32222 6.62468
thorax -2.2034 -1.17445 7.7668
lowerneck -6.49521 -0.184912 11.2371
upperneck 43.991 -2.08737 -3.351
head 17.0776 0.498558 -3.91456
rclavicle 6.75868e-015 7.95139e-016
rhumerus -4.91317 0.0885022 -52.8085
rradius 129.161
rwrist -16.5629
rhand -31.1455 6.61866
rfingers 7.12502
rthumb -4.42368 -23.3151
lclavicle 6.75868e-015 7.95139e-016
lhumerus 6.27031 -24.5145 67.9178
lradius 128.552
lwrist 0.339446
lhand -25.3835 0.412465
lfingers 7.12502
lthumb 1.14118 30.3892
rfemur -100.328 -8.47713 27.4046
rtibia 128.143
rfoot -0.686255 -0.227266
rtoes -13.6608
lfemur -12.1812 -5.21502 -20.4597
ltibia 39.2022
lfoot -14.5265 8.39999
ltoes 11.1527
